<?xml version="1.0" encoding="utf-8"?>
<svg version="1.1" id="Ebene_1" xmlns="http://www.w3.org/2000/svg" xmlns:xlink="http://www.w3.org/1999/xlink" x="0px" y="0px" viewBox="0 0 64 64" style="enable-background:new 0 0 64 64;" xml:space="preserve" class="one-color his-icon his-icon-arrow_rotate_back" height="100%" width="100%">

<g class="icon-style-wrapper icon-fill--rgb0-106-178" style="fill:#006AB2;"><path class="st0" d="M36,6c-12.5,0-22.9,8.8-25.4,20.4c-0.5-0.1-8.7-1.7-8.7-1.7c-0.7,0-1.4,0.4-1.7,1.1c-0.3,0.7-0.1,1.5,0.4,2
	l11.4,12.4c0.7,0.7,2.2,0.8,2.9,0.1l12.5-12.2c0.3-0.3,0.5-0.8,0.5-1.3c0-0.2,0-0.5-0.1-0.7c-0.3-0.7-0.9-1.1-1.7-1.2l-8.2,1.5
	c2.4-7.7,9.6-13.4,18.1-13.4c10.4,0,18.9,8.5,18.9,18.9s-8.5,18.9-18.9,18.9c-3.5,0-7-1-10-2.9c-1.2-0.7-2.7-0.6-3.7,0.3L21.5,49
	c-0.7,0.6-1.1,1.6-1,2.5c0.1,0.9,0.6,1.8,1.4,2.3c4.2,2.7,9.1,4.1,14.1,4.1C50.3,58,62,46.3,62,32C62,17.7,50.3,6,36,6z"></path></g>
</svg>