<?xml version="1.0" encoding="utf-8"?>
<svg version="1.1" id="Ebene_1" xmlns="http://www.w3.org/2000/svg" xmlns:xlink="http://www.w3.org/1999/xlink" x="0px" y="0px" viewBox="0 0 64 64" style="enable-background:new 0 0 64 64;" xml:space="preserve" class="one-color his-icon his-icon-cog" height="100%" width="100%">

<g class="icon-style-wrapper icon-fill--rgb0-106-178" style="fill:#006AB2;"><path class="st0" d="M52.9,27.1c-0.5-2.3-1.4-4.4-2.7-6.4c1.1-1.4,2.9-4.3,2.3-5l-4.2-4.2c-0.6-0.6-3.5,1.2-5,2.3
	c-1.9-1.2-4.1-2.1-6.4-2.7C36.7,9.3,35.9,6,35,6h-6c-0.9,0-1.7,3.3-1.9,5.1c-2.3,0.5-4.4,1.4-6.4,2.7c-1.4-1.1-4.3-2.9-5-2.3
	l-4.2,4.2c-0.6,0.6,1.2,3.5,2.3,5c-1.2,1.9-2.1,4.1-2.7,6.4C9.3,27.3,6,28.1,6,29v6c0,0.9,3.3,1.7,5.1,1.9c0.5,2.3,1.4,4.4,2.7,6.4
	c-1.1,1.4-2.9,4.3-2.3,5l4.2,4.2c0.6,0.6,3.5-1.2,5-2.3c1.9,1.2,4.1,2.1,6.4,2.7c0.2,1.8,1,5.1,1.9,5.1h6c0.9,0,1.7-3.3,1.9-5.1
	c2.3-0.5,4.4-1.4,6.4-2.7c1.4,1.1,4.3,2.9,5,2.3l4.2-4.2c0.6-0.6-1.2-3.5-2.3-5c1.2-1.9,2.1-4.1,2.7-6.4c1.8-0.2,5.1-1,5.1-1.9v-6
	C58,28.1,54.7,27.3,52.9,27.1z M32,44c-6.6,0-12-5.4-12-12c0-6.6,5.4-12,12-12s12,5.4,12,12C44,38.6,38.6,44,32,44z"></path></g>
</svg>