<?xml version="1.0" encoding="utf-8"?>
<svg version="1.1" id="Ebene_1" xmlns="http://www.w3.org/2000/svg" xmlns:xlink="http://www.w3.org/1999/xlink" x="0px" y="0px" viewBox="0 0 64 64" style="enable-background:new 0 0 64 64;" xml:space="preserve" class="one-color his-icon his-icon-delete" height="100%" width="100%">

<g>
	<g class="icon-style-wrapper icon-fill--rgb0-106-178" style="fill:#006AB2;"><path class="st0" d="M55.5,8L40.8,5.5c0,0,0-0.1,0-0.1c0.3-1.6-0.8-3.2-2.4-3.5L27.7,0c-1.6-0.3-3.2,0.8-3.5,2.4c0,0,0,0.1,0,0.1
		L9.5,0C7.9-0.2,6.3,0.9,6,2.5C5.8,4.1,6.9,5.7,8.5,6l46,8c0.2,0,0.4,0,0.6,0c1.4,0,2.6-1.1,2.9-2.5C58.2,9.9,57.1,8.3,55.5,8z"></path></g>
	<g class="icon-style-wrapper icon-fill--rgb0-106-178" style="fill:#006AB2;"><path class="st0" d="M55.2,17c-0.6-0.6-1.4-1-2.3-1H11.1c-0.9,0-1.7,0.4-2.3,1c-0.6,0.6-0.9,1.5-0.8,2.3l5.2,42
		c0.2,1.5,1.5,2.6,3.1,2.6h31.3c1.6,0,2.9-1.1,3.1-2.6l5.2-42C56.1,18.5,55.8,17.6,55.2,17z M22.3,58.3c-0.1,0-0.2,0-0.3,0
		c-1.3,0-2.3-1-2.5-2.2l-3.2-29.8c-0.1-1.4,0.8-2.6,2.2-2.8c1.4-0.1,2.6,0.8,2.8,2.2l3.2,29.8C24.6,56.9,23.6,58.2,22.3,58.3z
		 M34.5,56c0,1.4-1.1,2.5-2.5,2.5s-2.5-1.1-2.5-2.5V26c0-1.4,1.1-2.5,2.5-2.5s2.5,1.1,2.5,2.5V56z M47.7,26.4l-3.2,29.8
		c-0.1,1.3-1.2,2.2-2.5,2.2c-0.1,0-0.2,0-0.3,0c-1.4-0.1-2.4-1.4-2.2-2.8l3.2-29.8c0.1-1.4,1.4-2.4,2.8-2.2
		C46.9,23.8,47.8,25.1,47.7,26.4z"></path></g>
</g>
</svg>