<?xml version="1.0" encoding="utf-8"?>
<svg version="1.1" id="Ebene_1" xmlns="http://www.w3.org/2000/svg" xmlns:xlink="http://www.w3.org/1999/xlink" x="0px" y="0px" viewBox="0 0 64 64" style="enable-background:new 0 0 64 64;" xml:space="preserve" height="100%" width="100%" class="his-icon his-icon-editable_not">

<g>
	<g>
		<g>
			<g class="icon-style-wrapper icon-fill--rgb34-139-34" style="fill:#228B22;"><path class="st1" d="M19.1,38c-0.3,0-0.5-0.1-0.8-0.2c-0.8-0.3-1.3-1.1-1.3-1.9l3.3-12.1l-18.2,0c-1.2,0-2.1-1-2.1-2.1l0-3.4
				c0-1.2,0.9-2.1,2.1-2.1l18.2,0l-3.2-12c0-0.9,0.5-1.6,1.3-1.9c0.8-0.3,1.7-0.1,2.3,0.5l15.6,15.6c0.8,0.8,0.8,2.6,0,3.4
				L20.6,37.4C20.2,37.8,19.7,38,19.1,38z"></path></g>
		</g>
	</g>
	<g>
		
			<g class="icon-style-wrapper icon-fill--rgb255-255-255" style="fill:#FFFFFF;"><rect x="17.1" y="30.7" transform="matrix(0.6664 -0.7456 0.7456 0.6664 -17.1098 41.4212)" class="st2" width="41.2" height="18.2"></rect></g>
		<g class="icon-style-wrapper icon-fill--rgb255-150-0" style="fill:#FF9600;"><path class="st3" d="M58.3,30.6l0.9-1.1c2.4-2.6,1.2-7.5-2.5-10.8s-8.7-3.9-11.1-1.3l-0.9,1.1L58.3,30.6z"></path></g>
		<g class="icon-style-wrapper icon-fill--rgb255-150-0" style="fill:#FF9600;"><path class="st3" d="M17.2,49.1L16,62.7c0,0.3,0.1,0.7,0.4,0.9s0.7,0.4,1,0.3l13.4-2.7L17.2,49.1z"></path></g>
		
			<g class="icon-style-wrapper icon-fill--rgb255-150-0" style="fill:#FF9600;"><rect x="20" y="30.7" transform="matrix(0.6664 -0.7456 0.7456 0.6664 -17.1098 41.4212)" class="st3" width="35.5" height="18.2"></rect></g>
	</g>
	<g class="icon-style-wrapper icon-fill--rgb255-0-0" style="fill:#FF0000;"><path class="st4" d="M50.7,31.4c-1-0.2-2.1-0.3-3.2-0.3c-1,0-2.1,0.1-3,0.3C36.8,32.8,31,39.5,31,47.5c0,8,5.8,14.7,13.4,16.2
		c1,0.2,2,0.3,3,0.3c1.1,0,2.2-0.1,3.2-0.3C58.3,62.2,64,55.5,64,47.5C64,39.5,58.3,32.9,50.7,31.4z"></path></g>
	<g class="icon-style-wrapper icon-fill--rgb255-255-255" style="fill:#FFFFFF;"><path class="st2" d="M37.3,49.9v-4.7h20.5v4.7H37.3z"></path></g>
</g>
</svg>