<?xml version="1.0" encoding="utf-8"?>
<svg version="1.1" id="Ebene_1" xmlns="http://www.w3.org/2000/svg" xmlns:xlink="http://www.w3.org/1999/xlink" x="0px" y="0px" viewBox="0 0 64 64" style="enable-background:new 0 0 64 64;" xml:space="preserve" height="100%" width="100%" class="his-icon his-icon-euro_list">

<g>
	<g class="icon-style-wrapper icon-fill--rgb105-105-105" style="fill:#696969;"><path class="st1" d="M44.5,16h-22c-0.8,0-1.5-0.9-1.5-2s0.7-2,1.5-2h22c0.8,0,1.5,0.9,1.5,2S45.3,16,44.5,16z"></path></g>
	<path d="M16,16h-4c-1.1,0-2-0.9-2-2v0c0-1.1,0.9-2,2-2h4c1.1,0,2,0.9,2,2v0C18,15.1,17.1,16,16,16z"></path>
	<g class="icon-style-wrapper icon-fill--rgb105-105-105" style="fill:#696969;"><path class="st1" d="M44.5,35.3h-22c-0.8,0-1.5-0.9-1.5-2c0-1.1,0.7-2,1.5-2h22c0.8,0,1.5,0.9,1.5,2C46,34.4,45.3,35.3,44.5,35.3z"></path></g>
	<path d="M16,35.3h-4c-1.1,0-2-0.9-2-2v0c0-1.1,0.9-2,2-2h4c1.1,0,2,0.9,2,2v0C18,34.4,17.1,35.3,16,35.3z"></path>
	<g class="icon-style-wrapper icon-fill--rgb105-105-105" style="fill:#696969;"><path class="st1" d="M44.5,45h-22c-0.8,0-1.5-0.9-1.5-2s0.7-2,1.5-2h22c0.8,0,1.5,0.9,1.5,2S45.3,45,44.5,45z"></path></g>
	<path d="M16,45h-4c-1.1,0-2-0.9-2-2v0c0-1.1,0.9-2,2-2h4c1.1,0,2,0.9,2,2v0C18,44.1,17.1,45,16,45z"></path>
	<g class="icon-style-wrapper icon-fill--rgb105-105-105" style="fill:#696969;"><path class="st1" d="M44.5,25.7h-22c-0.8,0-1.5-0.9-1.5-2c0-1.1,0.7-2,1.5-2h22c0.8,0,1.5,0.9,1.5,2C46,24.8,45.3,25.7,44.5,25.7z"></path></g>
	<path d="M16,25.7h-4c-1.1,0-2-0.9-2-2v0c0-1.1,0.9-2,2-2h4c1.1,0,2,0.9,2,2v0C18,24.8,17.1,25.7,16,25.7z"></path>
	<g>
		<g>
			<g class="icon-style-wrapper icon-fill--rgb255-150-0" style="fill:#FF9600;"><path class="st2" d="M49.1,64c-4.5,0-8.4-1.8-11.7-5.3C34.8,55.8,33,52.2,32,48h-1.2c-1,0-1.7-0.4-2-0.8
				c-0.5-0.5-0.7-1.1-0.7-1.8c0-0.7,0.2-1.3,0.7-1.8c0.4-0.4,1-0.8,2.1-0.8h0.5c0-0.1,0-0.2,0-0.3v-1.4c0,0,0-1.2,0-2.2h-0.5
				c-1,0-1.7-0.4-2-0.8c-0.5-0.5-0.7-1.1-0.7-1.8c0-0.7,0.2-1.3,0.7-1.8c0.4-0.4,1-0.9,2.1-0.9H32C33.4,28.7,38.9,20,49.1,20
				c4,0,7.5,1.6,10.6,4.7c2.8,2.8,4.3,5.8,4.3,8.8c0,1-0.5,1.6-0.8,1.9c-1,0.9-2.7,0.9-3.8,0c-0.4-0.3-0.9-0.9-0.9-1.9
				c0-1.7-0.9-3.5-2.7-5.3c-2.1-2.1-4.3-3-6.6-2.9c-5.4,0.3-9.9,5.1-11.5,8.6h15.6c1.1,0,1.7,0.4,2.1,0.8c0.5,0.5,0.7,1.1,0.7,1.8
				c0,0.7-0.3,1.3-0.7,1.8c-0.5,0.5-1.2,0.8-2,0.8H36.8l-0.1,3l0,0.8h16.5c1.1,0,1.7,0.4,2.1,0.8c0.5,0.5,0.7,1.1,0.7,1.8
				c0,0.7-0.3,1.3-0.7,1.8c-0.5,0.5-1.2,0.8-2,0.8H37.6c0.8,2.8,2.1,5.2,3.8,7.1c2.2,2.5,4.7,3.7,7.7,3.7c2.4,0,4.6-1,6.6-2.9
				c1.8-1.8,2.7-3.6,2.7-5.3c0-1,0.5-1.6,0.8-1.9c1-0.9,2.8-0.9,3.8,0c0.4,0.3,0.9,0.9,0.9,1.9c0,3-1.4,6-4.3,8.8
				C56.7,62.4,53.1,64,49.1,64z M61.2,33.2c0,0.1,0,0.2,0,0.3C61.2,33.4,61.2,33.3,61.2,33.2z"></path></g>
		</g>
	</g>
</g>
</svg>