<?xml version="1.0" encoding="utf-8"?>
<svg version="1.1" id="Ebene_1" xmlns="http://www.w3.org/2000/svg" xmlns:xlink="http://www.w3.org/1999/xlink" x="0px" y="0px" viewBox="0 0 64 64" style="enable-background:new 0 0 64 64;" xml:space="preserve" height="100%" width="100%" class="his-icon his-icon-euro_list_i">

<g class="icon-style-wrapper icon-opacity--0-6" style="opacity:0.6;"><g class="st0">
	<g class="icon-style-wrapper icon-fill--rgb105-105-105" style="fill:#696969;"><path class="st1" d="M22.5,16h22c0.8,0,1.5-0.9,1.5-2c0-1.1-0.7-2-1.5-2h-22c-0.8,0-1.5,0.9-1.5,2C21,15.1,21.7,16,22.5,16z"></path></g>
	<path d="M16,12h-4c-1.1,0-2,0.9-2,2c0,1.1,0.9,2,2,2h4c1.1,0,2-0.9,2-2C18,12.9,17.1,12,16,12z"></path>
	<g class="icon-style-wrapper icon-fill--rgb105-105-105" style="fill:#696969;"><path class="st1" d="M30.7,33.8H32c0.2-0.7,0.5-1.6,0.9-2.4H22.5c-0.8,0-1.5,0.9-1.5,2s0.7,2,1.5,2h5.7c0.1-0.3,0.2-0.5,0.4-0.7
		C29,34.2,29.7,33.8,30.7,33.8z"></path></g>
	<g class="icon-style-wrapper icon-fill--rgb105-105-105" style="fill:#696969;"><path class="st1" d="M46,33.8c0-0.1,0-0.3,0-0.4c0-1.1-0.7-2-1.5-2h-5.3c-0.6,0.8-1.1,1.7-1.5,2.4H46z"></path></g>
	<path d="M16,31.3h-4c-1.1,0-2,0.9-2,2c0,1.1,0.9,2,2,2h4c1.1,0,2-0.9,2-2C18,32.2,17.1,31.3,16,31.3z"></path>
	<g class="icon-style-wrapper icon-fill--rgb105-105-105" style="fill:#696969;"><path class="st1" d="M36.8,42.8H46c-0.1-1-0.7-1.8-1.5-1.8h-7.7l0,1L36.8,42.8z"></path></g>
	<g class="icon-style-wrapper icon-fill--rgb105-105-105" style="fill:#696969;"><path class="st1" d="M30.7,42.8h0.5c0-0.1,0-0.2,0-0.3v-1.4c0,0,0-0.1,0-0.1h-8.7c-0.8,0-1.5,0.9-1.5,2c0,1.1,0.7,2,1.5,2H28
		c0.1-0.5,0.3-1,0.6-1.3C29,43.3,29.7,42.8,30.7,42.8z"></path></g>
	<path d="M16,41h-4c-1.1,0-2,0.9-2,2c0,1.1,0.9,2,2,2h4c1.1,0,2-0.9,2-2C18,41.9,17.1,41,16,41z"></path>
	<g class="icon-style-wrapper icon-fill--rgb105-105-105" style="fill:#696969;"><path class="st1" d="M41.9,21.7H22.5c-0.8,0-1.5,0.9-1.5,2c0,1.1,0.7,2,1.5,2h14.1C38,24.1,39.8,22.7,41.9,21.7z"></path></g>
	<path d="M16,21.7h-4c-1.1,0-2,0.9-2,2c0,1.1,0.9,2,2,2h4c1.1,0,2-0.9,2-2C18,22.6,17.1,21.7,16,21.7z"></path>
	<g class="icon-style-wrapper icon-fill--rgb165-165-165" style="fill:#A5A5A5;"><path class="st2" d="M63.1,48.6c-1-0.9-2.8-0.8-3.8,0c-0.4,0.3-0.8,0.9-0.8,1.9c0,1.7-0.9,3.5-2.7,5.3c-2,2-4.2,2.9-6.6,2.9
		c-3,0-5.5-1.2-7.7-3.7c-1.7-1.9-3-4.3-3.8-7.1h15.7c0.8,0,1.5-0.3,2-0.8c0.5-0.5,0.7-1.1,0.7-1.8c0-0.7-0.2-1.3-0.7-1.8
		c-0.4-0.4-1-0.8-2.1-0.8H46h-9.2l0-0.8l0-1l0-2h16.5c0.8,0,1.5-0.3,2-0.8c0.5-0.5,0.7-1.1,0.7-1.8c0-0.7-0.2-1.3-0.7-1.8
		c-0.4-0.4-1-0.8-2.1-0.8H46h-8.2c0.4-0.8,0.9-1.6,1.5-2.4c2.2-2.9,5.8-5.9,10-6.1c2.3-0.1,4.5,0.9,6.6,2.9c1.8,1.8,2.7,3.6,2.7,5.3
		c0,1,0.5,1.6,0.9,1.9c1.1,0.9,2.8,0.9,3.8,0c0.4-0.3,0.8-0.9,0.8-1.9c0-3-1.4-6-4.3-8.8c-3.1-3.1-6.6-4.7-10.6-4.7
		c-2.8,0-5.2,0.6-7.3,1.7c-2.1,1-3.8,2.4-5.3,4c-1.7,1.8-2.9,3.8-3.7,5.7c-0.4,0.9-0.7,1.7-0.9,2.4h-1.2c-1.1,0-1.7,0.5-2.1,0.9
		c-0.2,0.2-0.3,0.5-0.4,0.7C28.1,35.7,28,36,28,36.4c0,0.7,0.3,1.3,0.7,1.8c0.4,0.4,1,0.8,2,0.8h0.5c0,0.8,0,1.7,0,2
		c0,0.1,0,0.1,0,0.1v1.4c0,0.1,0,0.2,0,0.3h-0.5c-1.1,0-1.7,0.4-2.1,0.8C28.3,44,28.1,44.5,28,45c0,0.1,0,0.3,0,0.4
		c0,0.7,0.3,1.3,0.7,1.8c0.4,0.4,1,0.8,2,0.8H32c1,4.2,2.9,7.7,5.5,10.6c3.3,3.5,7.2,5.3,11.7,5.3c4,0,7.5-1.6,10.6-4.6
		c2.8-2.8,4.3-5.8,4.3-8.8C64,49.6,63.5,49,63.1,48.6z"></path></g>
</g></g>
</svg>