<?xml version="1.0" encoding="utf-8"?>
<svg version="1.1" id="Ebene_1" xmlns="http://www.w3.org/2000/svg" xmlns:xlink="http://www.w3.org/1999/xlink" x="0px" y="0px" viewBox="0 0 64 64" style="enable-background:new 0 0 64 64;" xml:space="preserve" class="one-color his-icon his-icon-minus_rect" height="100%" width="100%">

<g class="icon-style-wrapper icon-fill--rgb255-255-255 icon-stroke--rgb0-106-178 icon-stroke-miterlimit--10" style="fill:#FFFFFF;stroke:#006AB2;stroke-miterlimit:10;"><path class="st0" d="M17.3,19.4"></path></g>
<g>
	<g class="icon-style-wrapper icon-fill--rgb0-106-178" style="fill:#006AB2;"><path class="st1" d="M12.1,12L12.1,12L12.1,12 M52,12c0,0,0,0.1,0,0.1v39.8c0,0.1,0,0.1,0,0.1H12c0,0,0-0.1,0-0.1V12.1
		c0-0.1,0-0.1,0-0.1H52 M52.1,6H11.9C8.7,6,6,8.7,6,12.1v39.8c0,3.4,2.7,6.1,5.9,6.1h40.2c3.3,0,5.9-2.7,5.9-6.1V12.1
		C58,8.7,55.3,6,52.1,6L52.1,6z"></path></g>
</g>
<g>
	<g class="icon-style-wrapper icon-fill--rgb0-106-178" style="fill:#006AB2;"><path class="st1" d="M21.1,35.9c-1.4,0-2.5-0.4-3.3-1.1c-0.8-0.7-1.2-1.7-1.2-2.8c0-1.1,0.4-2.1,1.3-2.8c0.8-0.7,1.9-1,3.3-1h21.8
		c1.4,0,2.5,0.4,3.3,1.1c0.8,0.7,1.2,1.7,1.2,2.8c0,1.1-0.4,2.1-1.2,2.8c-0.8,0.7-1.8,1.1-3.1,1.1H21.1z"></path></g>
</g>
</svg>