<?xml version="1.0" encoding="utf-8"?>
<svg version="1.1" id="Ebene_1" xmlns="http://www.w3.org/2000/svg" xmlns:xlink="http://www.w3.org/1999/xlink" x="0px" y="0px" viewBox="0 0 64 64" style="enable-background:new 0 0 64 64;" xml:space="preserve" class="one-color his-icon his-icon-panel_close" height="100%" width="100%">

<g class="icon-style-wrapper icon-fill--rgb0-106-178" style="fill:#006AB2;"><path class="st0" d="M38.4,32l16.1-16.1c1-1.1,1.5-2.3,1.5-3.5c0-1.3-0.5-2.3-1.5-3.2c-1-0.9-2.1-1.3-3.4-1.2
	c-1.2,0.1-2.4,0.8-3.4,1.9L32,25.6L16.4,9.9c-1.1-1.2-2.2-1.8-3.4-1.9c-1.3-0.1-2.4,0.3-3.4,1.2c-1,0.9-1.5,2-1.5,3.2
	c0,1.2,0.5,2.4,1.5,3.5L25.6,32L9.6,47.9C8.6,49.1,8,50.3,8,51.5c0,1.3,0.5,2.4,1.5,3.3c0.9,0.8,1.9,1.2,3,1.2c0.1,0,0.1,0,0.2,0
	l0.2,0c1.2-0.1,2.4-0.8,3.5-1.9L32,38.4l15.6,15.6c1.1,1.2,2.3,1.8,3.5,1.9l0.2,0c0.1,0,0.1,0,0.2,0c1.1,0,2.1-0.4,3-1.2
	c1-0.9,1.5-2,1.5-3.3c0-1.2-0.6-2.4-1.6-3.6L38.4,32z"></path></g>
</svg>