<?xml version="1.0" encoding="utf-8"?>
<svg version="1.1" id="Ebene_1" xmlns="http://www.w3.org/2000/svg" xmlns:xlink="http://www.w3.org/1999/xlink" x="0px" y="0px" viewBox="0 0 64 64" style="enable-background:new 0 0 64 64;" xml:space="preserve" class="one-color his-icon his-icon-tick" height="100%" width="100%">

<g class="icon-style-wrapper icon-fill--rgb255-255-255 icon-stroke--rgb0-106-178 icon-stroke-width--6 icon-stroke-miterlimit--10" style="fill:#FFFFFF;stroke:#006AB2;stroke-width:6;stroke-miterlimit:10;"><path class="st0" d="M31.7,5.3"></path></g>
<g class="icon-style-wrapper icon-fill--rgb34-139-34" style="fill:#228B22;"><path class="st1" d="M54.2,13c-1.1-0.8-2.2-1.1-3.5-0.9c-1.2,0.2-2.4,1-3.4,2.3L26.2,40.5l-10-8.8C15,30.6,13.7,30,12.5,30
	c-1.3,0-2.4,0.5-3.3,1.6c-0.8,1-1.2,2.1-1.1,3.4c0,0.1,0,0.1,0,0.2c0.1,1.3,0.8,2.5,2.1,3.6l13.3,11.8c0.1,0.1,0.1,0.1,0.2,0.2
	c0.1,0.1,0.2,0.2,0.3,0.3c0.4,0.3,0.8,0.5,1.2,0.7c0.1,0,0.1,0.1,0.2,0.1c0.1,0,0.3,0.1,0.4,0.1c0.4,0.1,0.9,0.2,1.3,0.2
	c1.3-0.1,2.4-0.6,3.2-1.6c0.2-0.2,0.3-0.4,0.4-0.6c0.1-0.1,0.1-0.1,0.2-0.2L54.7,20c0.9-1.2,1.4-2.5,1.2-3.8
	C55.9,14.9,55.2,13.8,54.2,13z"></path></g>
</svg>